<svg width="135" height="31" viewBox="0 0 135 31" fill="none" xmlns="http://www.w3.org/2000/svg">
<path d="M47.7481 24.3202C46.4236 24.3202 45.2261 24.0934 44.1556 23.6398C43.1033 23.1862 42.2687 22.5331 41.6518 21.6803C41.0349 20.8275 40.7174 19.8205 40.6992 18.6593H44.7816C44.836 19.4395 45.1082 20.0564 45.5981 20.51C46.1061 20.9636 46.7956 21.1904 47.6665 21.1904C48.5556 21.1904 49.2541 20.9817 49.7621 20.5644C50.2702 20.129 50.5242 19.5665 50.5242 18.877C50.5242 18.3146 50.3518 17.8519 50.0071 17.489C49.6623 17.1262 49.2269 16.8449 48.7007 16.6453C48.1927 16.4276 47.4851 16.1917 46.5779 15.9377C45.3441 15.5748 44.3371 15.221 43.5569 14.8763C42.7948 14.5134 42.1326 13.9782 41.5701 13.2706C41.0258 12.5448 40.7537 11.5832 40.7537 10.3857C40.7537 9.26075 41.0349 8.28097 41.5973 7.44635C42.1598 6.61173 42.9491 5.97669 43.9651 5.54124C44.9812 5.08764 46.1424 4.86084 47.4488 4.86084C49.4083 4.86084 50.9959 5.34165 52.2116 6.30328C53.4453 7.24677 54.1257 8.57128 54.2528 10.2768H50.0615C50.0252 9.62363 49.744 9.08838 49.2178 8.67107C48.7098 8.23562 48.0294 8.01789 47.1766 8.01789C46.4327 8.01789 45.834 8.2084 45.3804 8.58942C44.9449 8.97045 44.7272 9.52384 44.7272 10.2496C44.7272 10.7576 44.8905 11.184 45.2171 11.5287C45.5618 11.8553 45.9791 12.1275 46.469 12.3452C46.977 12.5448 47.6846 12.7807 48.5918 13.0528C49.8256 13.4157 50.8326 13.7786 51.6128 14.1415C52.393 14.5044 53.0643 15.0487 53.6268 15.7744C54.1892 16.5002 54.4705 17.4527 54.4705 18.6321C54.4705 19.6482 54.2074 20.5916 53.6812 21.4626C53.155 22.3335 52.3839 23.032 51.3679 23.5582C50.3518 24.0662 49.1452 24.3202 47.7481 24.3202Z" fill="#332C5C"/>
<path d="M56.5219 16.5365C56.5219 15.0124 56.8213 13.6607 57.42 12.4813C58.0369 11.3019 58.8625 10.3947 59.8967 9.75971C60.949 9.12467 62.1193 8.80715 63.4075 8.80715C64.5324 8.80715 65.5122 9.03395 66.3468 9.48755C67.1996 9.94115 67.88 10.5127 68.388 11.2022V9.05209H72.2255V24.1297H68.388V21.9252C67.8981 22.6328 67.2177 23.2225 66.3468 23.6943C65.4941 24.1479 64.5052 24.3747 63.3803 24.3747C62.1102 24.3747 60.949 24.0481 59.8967 23.3949C58.8625 22.7417 58.0369 21.8254 57.42 20.6461C56.8213 19.4486 56.5219 18.0787 56.5219 16.5365ZM68.388 16.5909C68.388 15.6656 68.2066 14.8763 67.8437 14.2231C67.4808 13.5518 66.9909 13.0438 66.3741 12.699C65.7572 12.3361 65.0949 12.1547 64.3873 12.1547C63.6797 12.1547 63.0265 12.3271 62.4277 12.6718C61.829 13.0165 61.3391 13.5246 60.9581 14.1959C60.5952 14.8491 60.4138 15.6293 60.4138 16.5365C60.4138 17.4437 60.5952 18.242 60.9581 18.9315C61.3391 19.6028 61.829 20.1199 62.4277 20.4828C63.0446 20.8457 63.6978 21.0271 64.3873 21.0271C65.0949 21.0271 65.7572 20.8547 66.3741 20.51C66.9909 20.1471 67.4808 19.6391 67.8437 18.9859C68.2066 18.3146 68.388 17.5162 68.388 16.5909Z" fill="#332C5C"/>
<path d="M74.6949 16.5365C74.6949 15.0124 74.9943 13.6607 75.593 12.4813C76.2099 11.3019 77.0355 10.3947 78.0697 9.75971C79.122 9.12467 80.2923 8.80715 81.5805 8.80715C82.7055 8.80715 83.6852 9.03395 84.5199 9.48755C85.3726 9.94115 86.053 10.5127 86.561 11.2022V9.05209H90.3985V24.1297H86.561V21.9252C86.0712 22.6328 85.3908 23.2225 84.5199 23.6943C83.6671 24.1479 82.6782 24.3747 81.5533 24.3747C80.2832 24.3747 79.122 24.0481 78.0697 23.3949C77.0355 22.7417 76.2099 21.8254 75.593 20.6461C74.9943 19.4486 74.6949 18.0787 74.6949 16.5365ZM86.561 16.5909C86.561 15.6656 86.3796 14.8763 86.0167 14.2231C85.6538 13.5518 85.164 13.0438 84.5471 12.699C83.9302 12.3361 83.2679 12.1547 82.5603 12.1547C81.8527 12.1547 81.1995 12.3271 80.6008 12.6718C80.002 13.0165 79.5121 13.5246 79.1311 14.1959C78.7682 14.8491 78.5868 15.6293 78.5868 16.5365C78.5868 17.4437 78.7682 18.242 79.1311 18.9315C79.5121 19.6028 80.002 20.1199 80.6008 20.4828C81.2177 20.8457 81.8708 21.0271 82.5603 21.0271C83.2679 21.0271 83.9302 20.8547 84.5471 20.51C85.164 20.1471 85.6538 19.6391 86.0167 18.9859C86.3796 18.3146 86.561 17.5162 86.561 16.5909Z" fill="#332C5C"/>
<path d="M100.407 24.3202C99.0822 24.3202 97.8847 24.0934 96.8142 23.6398C95.7619 23.1862 94.9272 22.5331 94.3104 21.6803C93.6935 20.8275 93.3759 19.8205 93.3578 18.6593H97.4402C97.4946 19.4395 97.7668 20.0564 98.2567 20.51C98.7647 20.9636 99.4542 21.1904 100.325 21.1904C101.214 21.1904 101.913 20.9817 102.421 20.5644C102.929 20.129 103.183 19.5665 103.183 18.877C103.183 18.3146 103.01 17.8519 102.666 17.489C102.321 17.1262 101.885 16.8449 101.359 16.6453C100.851 16.4276 100.144 16.1917 99.2364 15.9377C98.0027 15.5748 96.9957 15.221 96.2155 14.8763C95.4534 14.5134 94.7912 13.9782 94.2287 13.2706C93.6844 12.5448 93.4122 11.5832 93.4122 10.3857C93.4122 9.26075 93.6935 8.28097 94.2559 7.44635C94.8184 6.61173 95.6077 5.97669 96.6237 5.54124C97.6398 5.08764 98.801 4.86084 100.107 4.86084C102.067 4.86084 103.654 5.34165 104.87 6.30328C106.104 7.24677 106.784 8.57128 106.911 10.2768H102.72C102.684 9.62363 102.403 9.08838 101.876 8.67107C101.368 8.23562 100.688 8.01789 99.8352 8.01789C99.0913 8.01789 98.4925 8.2084 98.0389 8.58942C97.6035 8.97045 97.3858 9.52384 97.3858 10.2496C97.3858 10.7576 97.5491 11.184 97.8756 11.5287C98.2204 11.8553 98.6377 12.1275 99.1276 12.3452C99.6356 12.5448 100.343 12.7807 101.25 13.0528C102.484 13.4157 103.491 13.7786 104.271 14.1415C105.052 14.5044 105.723 15.0487 106.285 15.7744C106.848 16.5002 107.129 17.4527 107.129 18.6321C107.129 19.6482 106.866 20.5916 106.34 21.4626C105.814 22.3335 105.043 23.032 104.026 23.5582C103.01 24.0662 101.804 24.3202 100.407 24.3202Z" fill="#332C5C"/>
<path d="M114.596 12.1819V19.4758C114.596 19.9838 114.714 20.3558 114.95 20.5916C115.204 20.8094 115.622 20.9182 116.202 20.9182H117.971V24.1297H115.576C112.365 24.1297 110.759 22.5693 110.759 19.4486V12.1819H108.963V9.05209H110.759V5.32351H114.596V9.05209H117.971V12.1819H114.596Z" fill="#332C5C"/>
<path d="M127.135 24.3747C125.683 24.3747 124.377 24.0571 123.216 23.4221C122.054 22.7689 121.138 21.8527 120.467 20.6733C119.814 19.4939 119.487 18.1331 119.487 16.5909C119.487 15.0487 119.823 13.6879 120.494 12.5085C121.183 11.3292 122.118 10.422 123.297 9.78692C124.477 9.13374 125.792 8.80715 127.244 8.80715C128.695 8.80715 130.01 9.13374 131.19 9.78692C132.369 10.422 133.295 11.3292 133.966 12.5085C134.655 13.6879 135 15.0487 135 16.5909C135 18.1331 134.646 19.4939 133.939 20.6733C133.249 21.8527 132.306 22.7689 131.108 23.4221C129.929 24.0571 128.604 24.3747 127.135 24.3747ZM127.135 21.0543C127.824 21.0543 128.468 20.891 129.067 20.5644C129.684 20.2197 130.174 19.7117 130.537 19.0403C130.9 18.369 131.081 17.5525 131.081 16.5909C131.081 15.1575 130.7 14.0598 129.938 13.2978C129.194 12.5176 128.278 12.1275 127.189 12.1275C126.1 12.1275 125.184 12.5176 124.44 13.2978C123.715 14.0598 123.352 15.1575 123.352 16.5909C123.352 18.0243 123.705 19.1311 124.413 19.9113C125.139 20.6733 126.046 21.0543 127.135 21.0543Z" fill="#332C5C"/>
<path d="M16.9308 27.9778H8.54851C5.04285 27.9778 2.19922 25.1368 2.19922 21.6286V8.61199C2.19922 5.10632 5.04024 2.2627 8.54851 2.2627H18.7632C17.6241 2.37477 16.5216 2.61717 15.4634 2.99771C13.9595 3.53985 12.7371 4.35567 11.7961 5.44255C10.8552 6.52944 10.3834 7.83266 10.3834 9.35482C10.3834 10.9838 10.7822 12.3079 11.5798 13.3192C12.3748 14.3331 13.3365 15.0942 14.4599 15.5999C15.5807 16.1081 17.0299 16.6138 18.8049 17.122C20.254 17.5573 21.3852 17.9378 22.201 18.2636C23.0143 18.5894 23.6945 19.043 24.2393 19.6216C24.7814 20.2002 25.0525 20.9431 25.0525 21.8475C25.0525 23.1872 24.5729 24.2298 23.6137 24.97C22.6546 25.7128 21.3227 26.083 19.6207 26.083C17.7362 26.083 16.2975 25.765 15.3018 25.1316C14.3061 24.4982 13.8083 23.6381 13.8083 22.5512C13.8083 21.7563 14.0168 21.1385 14.4339 20.7033C14.8509 20.268 15.0594 20.0334 15.0594 19.9969C15.0594 19.8171 14.8326 19.5616 14.3791 19.2358C13.9256 18.91 13.4095 18.7458 12.8309 18.7458C11.817 18.7458 10.9934 19.0716 10.36 19.7232C9.72662 20.3749 9.40863 21.2272 9.40863 22.2776C9.40863 24.1255 10.3131 25.5565 12.1245 26.5678C13.4382 27.3106 15.0438 27.7745 16.9308 27.9778Z" fill="#FF553E"/>
<path d="M21.8029 0H8.43444C3.78455 0 0 3.78455 0 8.43444V21.8029C0 26.4554 3.78455 30.2373 8.43444 30.2373H21.8029C26.4554 30.2373 30.2399 26.4528 30.2399 21.8029V8.43444C30.2399 3.78455 26.4554 0 21.8029 0ZM29.5179 21.8029C29.5179 26.0618 26.0644 29.5153 21.8055 29.5153H8.43444C4.17552 29.5153 0.721984 26.0618 0.721984 21.8029V8.43444C0.721984 4.17552 4.17552 0.721984 8.43444 0.721984H21.8029C23.6196 0.721984 25.2877 1.35535 26.6066 2.41096C28.1079 3.86014 29.0983 6.28934 27.9775 8.72115C27.829 9.13036 27.6074 9.50569 27.3129 9.84453C26.716 10.5326 25.9263 10.8767 24.9489 10.8767C24.3676 10.8767 23.8541 10.7125 23.4006 10.3867C22.9471 10.0609 22.7203 9.80804 22.7203 9.62559C22.7203 9.5891 22.8663 9.44574 23.1556 9.19031C23.4449 8.93748 23.7082 8.63774 23.9454 8.29369C24.18 7.94964 24.2999 7.54304 24.2999 7.07127C24.2269 6.09386 23.7369 5.33278 22.8324 4.79064C21.9254 4.2485 20.8567 3.97482 19.6265 3.97482C18.2503 3.97482 17.0461 4.29281 16.014 4.92617C14.9818 5.55954 14.4657 6.43791 14.4657 7.56128C14.4657 8.57519 14.6821 9.38058 15.1174 9.97745C15.5526 10.5743 16.2042 11.0565 17.0722 11.4162C17.9401 11.7785 19.3163 12.2685 21.2008 12.8836C23.1191 13.4988 24.623 14.0696 25.7099 14.5961C26.6326 15.0418 27.3807 15.6256 27.9775 16.332C27.9854 16.3424 27.9932 16.3502 28.001 16.3606C29.0123 17.5778 29.5179 19.1339 29.5179 20.716V21.8029V21.8029Z" fill="#FF553E"/>
</svg>
