<svg width="32" height="32" viewBox="0 0 32 32" fill="none" xmlns="http://www.w3.org/2000/svg">
<g clip-path="url(#clip0_0_257)">
<path d="M29.5141 6.8381L17.6634 5.8736L2.48511 6.8381V30.5252C2.48511 30.938 2.81974 31.2727 3.23258 31.2727H28.7665C29.1794 31.2727 29.5142 30.9379 29.5142 30.525L29.5141 6.8381Z" fill="#F6F9F9"/>
<path d="M29.5141 6.8381L27.0558 5.60895V24.3447C27.0558 27.492 24.5043 30.0435 21.357 30.0435H2.48511V30.5252C2.48511 30.9381 2.81974 31.2727 3.23258 31.2727H28.7665C29.1794 31.2727 29.5141 30.9379 29.5141 30.525V6.8381Z" fill="#E7ECF1"/>
<path d="M28.7665 2.47083H3.2327C2.81979 2.47083 2.48511 2.80551 2.48511 3.21841V6.83811H29.5141V3.21841C29.5141 2.80551 29.1794 2.47083 28.7665 2.47083Z" fill="#61A2F9"/>
<path d="M28.7663 2.47083H27.0554V6.83811H29.5138V3.21841C29.5138 2.80551 29.1791 2.47083 28.7663 2.47083Z" fill="#5490F9"/>
<path d="M6.30498 4.84174H5.88498C5.47363 4.84174 5.14014 4.50825 5.14014 4.0969V1.47214C5.14014 1.06079 5.47363 0.727295 5.88498 0.727295H6.30498C6.71633 0.727295 7.04982 1.06079 7.04982 1.47214V4.09684C7.04982 4.50825 6.71639 4.84174 6.30498 4.84174Z" fill="#DAE4EA"/>
<path d="M11.2571 4.84174H10.8371C10.4258 4.84174 10.0923 4.50825 10.0923 4.0969V1.47214C10.0923 1.06079 10.4258 0.727295 10.8371 0.727295H11.2571C11.6685 0.727295 12.002 1.06079 12.002 1.47214V4.09684C12.002 4.50825 11.6685 4.84174 11.2571 4.84174Z" fill="#DAE4EA"/>
<path d="M16.2085 4.84174H15.7885C15.3772 4.84174 15.0437 4.50825 15.0437 4.0969V1.47214C15.0437 1.06079 15.3772 0.727295 15.7885 0.727295H16.2085C16.6199 0.727295 16.9534 1.06079 16.9534 1.47214V4.09684C16.9534 4.50825 16.6199 4.84174 16.2085 4.84174Z" fill="#DAE4EA"/>
<path d="M21.1607 4.84174H20.7407C20.3293 4.84174 19.9958 4.50825 19.9958 4.0969V1.47214C19.9958 1.06079 20.3293 0.727295 20.7407 0.727295H21.1607C21.572 0.727295 21.9055 1.06079 21.9055 1.47214V4.09684C21.9055 4.50825 21.572 4.84174 21.1607 4.84174Z" fill="#DAE4EA"/>
<path d="M26.1136 4.84174H25.6936C25.2822 4.84174 24.9487 4.50825 24.9487 4.0969V1.47214C24.9487 1.06079 25.2822 0.727295 25.6936 0.727295H26.1136C26.5249 0.727295 26.8584 1.06079 26.8584 1.47214V4.09684C26.8584 4.50825 26.5249 4.84174 26.1136 4.84174Z" fill="#DAE4EA"/>
<path d="M23.7297 15.2658L21.7947 13.3308C21.6389 13.1749 21.3862 13.1749 21.2303 13.3308L14.5484 20.0127C14.5267 20.0344 14.4915 20.0344 14.4698 20.0127L10.7812 16.324C10.6253 16.1681 10.3726 16.1681 10.2167 16.324L8.27024 18.2705C8.11435 18.4264 8.11435 18.679 8.27024 18.8349L14.2154 24.78C14.3713 24.9359 14.6239 24.9359 14.7798 24.78L23.7297 15.8301C23.8855 15.6743 23.8855 15.4217 23.7297 15.2658Z" fill="#80E29D"/>
</g>
<defs>
<clipPath id="clip0_0_257">
<rect width="30.5455" height="30.5455" fill="white" transform="translate(0.727295 0.727295)"/>
</clipPath>
</defs>
</svg>
