<svg width="32" height="32" viewBox="0 0 32 32" fill="none" xmlns="http://www.w3.org/2000/svg">
<g clip-path="url(#clip0_0_294)">
<path d="M11.0576 9.92373L10.0798 8.23013L9.10081 8.15735L8.73999 9.00373L9.71852 10.6985C10.4214 10.8275 10.9436 10.555 11.0576 9.92373Z" fill="#B9C1CB"/>
<path d="M20.9392 9.92373L21.917 8.23013L22.896 8.15735L23.2568 9.00373L22.2783 10.6985C21.5754 10.8275 21.0532 10.555 20.9392 9.92373Z" fill="#B9C1CB"/>
<path d="M16.7935 7.28258C18.0207 6.93101 18.8777 5.79271 18.8777 4.51457C18.8777 2.92704 17.5862 1.63554 15.9986 1.63554C14.4111 1.63554 13.1196 2.9271 13.1196 4.51457C13.1196 5.79271 13.9766 6.93101 15.2038 7.28258L15.3283 8.24249C13.5162 7.91848 12.2114 6.3229 12.2114 4.51451C12.2114 2.42627 13.9103 0.727295 15.9986 0.727295C18.0869 0.727295 19.7859 2.42627 19.7859 4.51451C19.7859 6.32027 18.485 7.91383 16.677 8.24106L16.7935 7.28258Z" fill="#DAE4EA"/>
<path d="M15.9986 9.03153C16.3083 9.03153 16.6151 9.04602 16.9184 9.07442V5.29395H15.0786V9.07442C15.382 9.04602 15.6888 9.03153 15.9986 9.03153Z" fill="#B9C1CB"/>
<path d="M15.9984 31.2728C22.2088 31.2728 27.2432 26.2383 27.2432 20.028C27.2432 13.8177 22.2088 8.7832 15.9984 8.7832C9.78812 8.7832 4.75366 13.8177 4.75366 20.028C4.75366 26.2383 9.78812 31.2728 15.9984 31.2728Z" fill="#DAE4EA"/>
<path d="M17.3609 3.48108H14.6352C14.5 3.48108 14.3904 3.59067 14.3904 3.72592V5.30319C14.3904 5.43844 14.5 5.54803 14.6352 5.54803H17.3609C17.4961 5.54803 17.6057 5.43844 17.6057 5.30319V3.72592C17.6057 3.59073 17.496 3.48108 17.3609 3.48108Z" fill="#DAE4EA"/>
<path d="M10.2193 8.14965L8.60064 9.08415C8.53973 9.11929 8.46188 9.09847 8.42674 9.03756L7.21727 6.94274C7.18213 6.88183 7.20295 6.80398 7.26386 6.76884L8.88247 5.83434C8.94339 5.7992 9.02124 5.82002 9.05638 5.88093L10.2658 7.97574C10.301 8.03659 10.2802 8.11445 10.2193 8.14965Z" fill="#DAE4EA"/>
<path d="M21.7771 8.14965L23.3957 9.08415C23.4566 9.11929 23.5345 9.09847 23.5696 9.03756L24.7791 6.94274C24.8142 6.88183 24.7934 6.80398 24.7325 6.76884L23.1139 5.83434C23.0529 5.7992 22.9751 5.82002 22.94 5.88093L21.7305 7.97574C21.6953 8.03659 21.7162 8.11445 21.7771 8.14965Z" fill="#DAE4EA"/>
<path d="M15.9981 29.2284C21.0793 29.2284 25.1985 25.1092 25.1985 20.028C25.1985 14.9467 21.0793 10.8275 15.9981 10.8275C10.9168 10.8275 6.79761 14.9467 6.79761 20.028C6.79761 25.1092 10.9168 29.2284 15.9981 29.2284Z" fill="#F6F9F9"/>
<path d="M18.8529 11.2789C21.2258 12.9429 22.7771 15.6988 22.7771 18.817C22.7771 23.8983 18.6579 28.0175 13.5766 28.0175C12.5802 28.0175 11.6208 27.8591 10.7222 27.566C12.216 28.6136 14.0355 29.2284 15.9985 29.2284C21.0798 29.2284 25.1989 25.1092 25.1989 20.0279C25.1989 15.9431 22.5369 12.48 18.8529 11.2789Z" fill="#E7ECF1"/>
<path d="M15.9988 19.9417V12.4283C15.9988 12.3803 16.0381 12.341 16.0861 12.3416C20.2555 12.3882 23.6384 15.7712 23.6851 19.9405C23.6856 19.9886 23.6464 20.0279 23.5983 20.0279H16.085C16.0374 20.0279 15.9988 19.9893 15.9988 19.9417Z" fill="#DA4A54"/>
<path d="M23.5982 20.0279C23.6463 20.0279 23.6855 19.9886 23.685 19.9406C23.6658 18.2247 23.0815 16.642 22.1099 15.3702C22.5403 16.4348 22.7773 17.5982 22.7773 18.817C22.7773 19.2275 22.7504 19.6317 22.6983 20.0279H23.5982Z" fill="#D82E3D"/>
</g>
<defs>
<clipPath id="clip0_0_294">
<rect width="30.5455" height="30.5455" fill="white" transform="translate(0.726318 0.727295)"/>
</clipPath>
</defs>
</svg>
