<svg width="32" height="28" viewBox="0 0 32 28" fill="none" xmlns="http://www.w3.org/2000/svg">
<g clip-path="url(#clip0_0_276)">
<path d="M28.762 4.3144L16.4704 3.50244L0.727295 4.3144V24.2637C0.727295 24.6114 1.0744 24.8933 1.5025 24.8933H27.9863C28.4144 24.8933 28.762 24.6114 28.762 24.2637V4.3144Z" fill="#F6F9F9"/>
<path d="M28.7624 4.31447L26.6893 3.27942V19.0589C26.6893 21.7098 24.5377 23.8583 21.8841 23.8583H0.739258V24.2643C0.739258 24.612 1.02147 24.8939 1.36958 24.8939H28.1321C28.4802 24.8939 28.7624 24.612 28.7624 24.2643V4.31447Z" fill="#E7ECF1"/>
<path d="M28.1317 0.636475H1.36919C1.02108 0.636475 0.738865 0.91835 0.738865 1.26605L0.727295 4.31442H28.762V1.26605C28.762 0.91835 28.4798 0.636475 28.1317 0.636475Z" fill="#61A2F9"/>
<path d="M28.1317 0.636475H26.689V4.31442H28.7621V1.26605C28.7621 0.91835 28.4798 0.636475 28.1317 0.636475Z" fill="#5490F9"/>
<path d="M3.01611 17.2354V16.325C3.01611 16.2129 3.16753 16.1215 3.35417 16.1215H22.4763C22.6629 16.1215 22.8143 16.2124 22.8143 16.325V17.2354C22.8143 17.3479 22.6629 17.4389 22.4763 17.4389H3.35417C3.16753 17.4389 3.01611 17.3479 3.01611 17.2354Z" fill="#DAE4EA"/>
<path d="M3.01611 19.8698V18.9594C3.01611 18.8468 3.13735 18.7559 3.28726 18.7559H18.6254C18.7753 18.7559 18.8965 18.8468 18.8965 18.9594V19.8698C18.8965 19.9818 18.7753 20.0733 18.6254 20.0733H3.28726C3.13785 20.0733 3.01611 19.9823 3.01611 19.8698Z" fill="#DAE4EA"/>
<path d="M3.01611 13.0917V8.08524C3.01611 7.46773 3.56042 6.96729 4.2325 6.96729H11.0107C11.6822 6.96729 12.227 7.46773 12.227 8.08524V13.0917C12.227 13.7092 11.6827 14.2096 11.0107 14.2096H4.2325C3.56092 14.2096 3.01611 13.7092 3.01611 13.0917Z" fill="#DAE4EA"/>
<path d="M13.6033 13.0917V8.08524C13.6033 7.46773 14.1476 6.96729 14.8197 6.96729H21.5978C22.2694 6.96729 22.8142 7.46773 22.8142 8.08524V13.0917C22.8142 13.7092 22.2699 14.2096 21.5978 14.2096H14.8197C14.1481 14.2096 13.6033 13.7092 13.6033 13.0917Z" fill="#DAE4EA"/>
<path d="M31.0161 21.0552L30.1805 20.8738C30.1081 20.6517 30.018 20.4346 29.9114 20.2261L30.3742 19.5076C30.4567 19.379 30.4386 19.2107 30.3304 19.1026L29.0285 17.8023C28.9204 17.6943 28.7519 17.6762 28.6231 17.7586L27.9037 18.2208C27.6944 18.1148 27.4776 18.0249 27.2553 17.952L27.0737 17.1174C27.0415 16.9682 26.9092 16.8617 26.7562 16.8617H24.9156C24.7626 16.8617 24.6303 16.9682 24.5981 17.1174L24.4165 17.952C24.1942 18.0244 23.9769 18.1143 23.7681 18.2208L23.0487 17.7586C22.9199 17.6762 22.7514 17.6943 22.6433 17.8023L21.3414 19.1026C21.2332 19.2107 21.2151 19.379 21.2976 19.5076L21.7604 20.2261C21.6543 20.4351 21.5642 20.6517 21.4913 20.8738L20.6557 21.0552C20.5063 21.0878 20.4001 21.2195 20.4001 21.3722V23.2107C20.4001 23.3634 20.5068 23.4951 20.6557 23.5277L21.4913 23.7091C21.5637 23.9312 21.6538 24.1482 21.7604 24.3568L21.2976 25.0753C21.2151 25.2039 21.2332 25.3722 21.3414 25.4803L22.6433 26.7806C22.7514 26.8886 22.9199 26.9067 23.0487 26.8243L23.7681 26.3621C23.9774 26.4681 24.1942 26.558 24.4165 26.6309L24.5981 27.4654C24.6303 27.6147 24.7626 27.7212 24.9156 27.7212H26.7562C26.9092 27.7212 27.0415 27.6147 27.0737 27.4654L27.2553 26.6309C27.4776 26.5585 27.6949 26.4686 27.9037 26.3621L28.6231 26.8243C28.7519 26.9067 28.9204 26.8886 29.0285 26.7806L30.3304 25.4803C30.4386 25.3722 30.4567 25.2039 30.3742 25.0753L29.9114 24.3568C30.0175 24.1477 30.1076 23.9312 30.1805 23.7091L31.0161 23.5277C31.1655 23.4951 31.2722 23.3634 31.2722 23.2107V21.3722C31.2722 21.22 31.1655 21.0878 31.0161 21.0552ZM27.7855 22.2917C27.7855 23.3649 26.9112 24.2387 25.8362 24.2387C24.7616 24.2387 23.8868 23.3654 23.8868 22.2917C23.8868 21.218 24.7611 20.3447 25.8362 20.3447C26.9107 20.3452 27.7855 21.2185 27.7855 22.2917Z" fill="#C8D2D8"/>
</g>
<defs>
<clipPath id="clip0_0_276">
<rect width="30.5455" height="27.0846" fill="white" transform="translate(0.727295 0.636475)"/>
</clipPath>
</defs>
</svg>
