<svg width="34" height="30" viewBox="0 0 34 30" fill="none" xmlns="http://www.w3.org/2000/svg">
<path d="M30.3367 8.7247H29.3108V5.64711C29.3108 5.07878 28.8512 4.62125 28.2849 4.62125H3.66426C1.96748 4.62125 0.58667 6.00206 0.58667 7.69883V26.1644C0.58667 27.8611 1.96748 29.2419 3.66426 29.2419H30.3367C30.9029 29.2419 31.3625 28.7824 31.3625 28.2161V9.75056C31.3625 9.18223 30.9029 8.7247 30.3367 8.7247Z" fill="#FA855C"/>
<path d="M32.388 21.0348H26.2329C24.534 21.0348 23.1553 19.6561 23.1553 17.9572C23.1553 16.2563 24.534 14.8796 26.2329 14.8796H32.388C32.9543 14.8796 33.4139 15.3392 33.4139 15.9055V20.0089C33.4139 20.5752 32.9543 21.0348 32.388 21.0348Z" fill="#FFD6C8"/>
<path d="M26.867 8.72456L23.0466 1.08394C22.7922 0.577167 22.1767 0.374046 21.6699 0.624356L5.47363 8.72456H26.867Z" fill="#F8FEFE"/>
<path d="M2.63867 8.72465H22.764L18.9437 1.08403C18.6893 0.577258 18.0738 0.374137 17.567 0.626499L2.63867 8.09067V8.72465Z" fill="#E6EAE8"/>
</svg>
