<svg width="34" height="34" viewBox="0 0 34 34" fill="none" xmlns="http://www.w3.org/2000/svg">
<g clip-path="url(#clip0_0_232)">
<path d="M11.6907 10.4698L10.6399 8.64969L9.58773 8.57147L9.19995 9.48109L10.2516 11.3025C11.007 11.4411 11.5682 11.1482 11.6907 10.4698Z" fill="#B9C1CB"/>
<path d="M22.3096 10.4698L23.3604 8.64969L24.4126 8.57147L24.8004 9.48109L23.7487 11.3025C22.9933 11.4411 22.4321 11.1482 22.3096 10.4698Z" fill="#B9C1CB"/>
<path d="M17.8546 7.63129C19.1734 7.25345 20.0945 6.03011 20.0945 4.65648C20.0945 2.95034 18.7065 1.56235 17.0003 1.56235C15.2942 1.56235 13.9062 2.95041 13.9062 4.65648C13.9062 6.03011 14.8273 7.25345 16.1461 7.63129L16.2799 8.66292C14.3324 8.3147 12.9302 6.59991 12.9302 4.65641C12.9301 2.41215 14.756 0.586243 17.0003 0.586243C19.2447 0.586243 21.0706 2.41215 21.0706 4.65641C21.0706 6.59709 19.6725 8.3097 17.7294 8.66138L17.8546 7.63129Z" fill="#DAE4EA"/>
<path d="M16.9999 9.51085C17.3328 9.51085 17.6625 9.52643 17.9885 9.55694V5.49402H16.0112V9.55694C16.3373 9.52643 16.667 9.51085 16.9999 9.51085Z" fill="#B9C1CB"/>
<path d="M17 33.4137C23.6743 33.4137 29.0849 28.0031 29.0849 21.3288C29.0849 14.6545 23.6743 9.2439 17 9.2439C10.3256 9.2439 4.91504 14.6545 4.91504 21.3288C4.91504 28.0031 10.3256 33.4137 17 33.4137Z" fill="#DAE4EA"/>
<path d="M18.4649 3.54565H15.5356C15.3902 3.54565 15.2725 3.66344 15.2725 3.80879V5.5039C15.2725 5.64925 15.3902 5.76703 15.5356 5.76703H18.4649C18.6102 5.76703 18.728 5.64925 18.728 5.5039V3.80879C18.728 3.6635 18.6102 3.54565 18.4649 3.54565Z" fill="#DAE4EA"/>
<path d="M10.7891 8.56322L9.04952 9.56754C8.98405 9.60531 8.90038 9.58293 8.86262 9.51747L7.56279 7.26615C7.52502 7.20069 7.5474 7.11701 7.61286 7.07925L9.3524 6.07493C9.41786 6.03717 9.50154 6.05954 9.5393 6.12501L10.8391 8.37632C10.877 8.44172 10.8545 8.52539 10.7891 8.56322Z" fill="#DAE4EA"/>
<path d="M23.2108 8.56322L24.9503 9.56754C25.0158 9.60531 25.0995 9.58293 25.1372 9.51747L26.4371 7.26615C26.4748 7.20069 26.4524 7.11701 26.387 7.07925L24.6474 6.07493C24.582 6.03717 24.4983 6.05954 24.4605 6.12501L23.1607 8.37632C23.1229 8.44172 23.1453 8.52539 23.2108 8.56322Z" fill="#DAE4EA"/>
<path d="M16.9999 31.2168C22.4608 31.2168 26.8877 26.7899 26.8877 21.329C26.8877 15.8681 22.4608 11.4412 16.9999 11.4412C11.539 11.4412 7.11206 15.8681 7.11206 21.329C7.11206 26.7899 11.539 31.2168 16.9999 31.2168Z" fill="#F6F9F9"/>
<path d="M25.2608 21.3289C25.2608 16.7971 21.5928 13.1059 17.0697 13.0681C17.0313 13.0678 16.9997 13.0993 16.9997 13.1377V21.3289H8.80858C8.77011 21.3289 8.7387 21.3605 8.73902 21.399C8.77678 25.922 12.468 29.5901 16.9998 29.5901C17.0183 29.5901 17.0367 29.59 17.055 29.5899C21.5849 29.5601 25.2608 25.8658 25.2608 21.3289Z" fill="#FFC954"/>
<path d="M19.3245 13.4008C21.3463 14.9081 22.658 17.3175 22.658 20.0275C22.658 24.5643 18.9819 28.2586 14.452 28.2884C14.4337 28.2885 14.4153 28.2886 14.3968 28.2886C13.5899 28.2886 12.8097 28.1723 12.072 27.9556C13.4486 28.9819 15.1544 29.59 16.9996 29.59C17.0181 29.59 17.0365 29.5899 17.0548 29.5898C21.5847 29.56 25.2608 25.8656 25.2608 21.3289C25.2607 17.5806 22.7514 14.4074 19.3245 13.4008Z" fill="#E1A729"/>
</g>
<defs>
<clipPath id="clip0_0_232">
<rect width="32.8276" height="32.8276" fill="white" transform="translate(0.586182 0.586243)"/>
</clipPath>
</defs>
</svg>
