<svg width="34" height="34" viewBox="0 0 34 34" fill="none" xmlns="http://www.w3.org/2000/svg">
<g clip-path="url(#clip0_0_221)">
<path d="M20.109 18.6632C24.6052 22.6967 27.2544 26.5764 27.5762 32.2443H6.42407C6.74583 26.5765 9.39507 22.6967 13.8913 18.6632L15.7466 16.9988L13.8913 15.3382C9.39507 11.3046 6.74583 7.42493 6.42407 1.75702H27.5762C27.2544 7.42493 24.6052 11.3047 20.109 15.3382L18.2537 16.9988L20.109 18.6632Z" fill="#F6F9F9"/>
<path d="M6.22094 2.94281H27.7799C28.5053 2.94281 29.0934 2.41524 29.0934 1.76449C29.0934 1.11375 28.5053 0.586243 27.7799 0.586243H6.22094C5.49547 0.586243 4.90747 1.11382 4.90747 1.76456C4.90747 2.41531 5.49547 2.94281 6.22094 2.94281Z" fill="#2F4859"/>
<path d="M12.6352 25.4469C9.93222 26.8476 8.26733 29.4353 8.26733 32.2355H25.7325C25.7325 29.4352 24.0674 26.8476 21.3645 25.4469L17.7431 23.5703C17.7431 19.0218 17.7431 17.8834 17.7431 13.3349L20.3032 12.0083C22.0546 11.1008 23.23 9.53478 23.532 7.77301C23.613 7.30011 23.2114 6.87061 22.678 6.87061H11.3219C10.7885 6.87061 10.3868 7.30004 10.4679 7.77301C10.7699 9.53471 11.9454 11.1008 13.6968 12.0083L16.4344 13.427C16.4344 17.8936 16.4344 19.0115 16.4343 23.4783L12.6352 25.4469Z" fill="#F7BE56"/>
<path d="M27.7799 31.0573H6.22094C5.49547 31.0573 4.90747 31.5848 4.90747 32.2356C4.90747 32.8862 5.49547 33.4139 6.22094 33.4139H27.7799C28.5053 33.4139 29.0934 32.8863 29.0934 32.2356C29.0934 31.5849 28.5053 31.0573 27.7799 31.0573Z" fill="#2F4859"/>
</g>
<defs>
<clipPath id="clip0_0_221">
<rect width="32.8276" height="32.8276" fill="white" transform="translate(0.586182 0.586243)"/>
</clipPath>
</defs>
</svg>
