<svg width="99" height="127" viewBox="0 0 99 127" fill="none" xmlns="http://www.w3.org/2000/svg">
<path d="M96.9656 0.00620466C97.515 -0.050523 98.0063 0.348837 98.0631 0.898201C98.1198 1.44756 97.7204 1.9389 97.1711 1.99563L96.9656 0.00620466ZM8.79366 126.189C8.41346 126.59 7.78051 126.606 7.37994 126.226L0.852173 120.03C0.451599 119.65 0.435089 119.017 0.8153 118.617C1.1955 118.216 1.82845 118.2 2.22903 118.58L8.03148 124.087L13.5389 118.285C13.9191 117.884 14.552 117.868 14.9526 118.248C15.3532 118.628 15.3697 119.261 14.9895 119.662L8.79366 126.189ZM97.1711 1.99563C82.048 3.55725 59.4228 11.5905 40.885 30.6359C22.3739 49.6538 7.87436 79.718 9.06802 125.475L7.0687 125.527C5.86236 79.2838 20.5295 48.6813 39.4518 29.2409C58.3473 9.82804 81.422 1.61125 96.9656 0.00620466L97.1711 1.99563Z" fill="#FE6292" fill-opacity="0.5"/>
</svg>
