<svg width="98" height="127" viewBox="0 0 98 127" fill="none" xmlns="http://www.w3.org/2000/svg">
<path d="M1.10271 0.00620466C0.553351 -0.050523 0.0620169 0.348837 0.00528914 0.898201C-0.0514386 1.44756 0.347922 1.9389 0.897285 1.99563L1.10271 0.00620466ZM89.2747 126.189C89.6549 126.59 90.2878 126.606 90.6884 126.226L97.2162 120.03C97.6168 119.65 97.6333 119.017 97.2531 118.617C96.8729 118.216 96.2399 118.2 95.8393 118.58L90.0369 124.087L84.5295 118.285C84.1493 117.884 83.5163 117.868 83.1157 118.248C82.7152 118.628 82.6986 119.261 83.0789 119.662L89.2747 126.189ZM0.897285 1.99563C16.0204 3.55725 38.6456 11.5905 57.1834 30.6359C75.6945 49.6538 90.194 79.718 89.0003 125.475L90.9997 125.527C92.206 79.2838 77.5389 48.6813 58.6166 29.2409C39.7211 9.82804 16.6463 1.61125 1.10271 0.00620466L0.897285 1.99563Z" fill="#7AD6E1"/>
</svg>
