<svg width="135" height="156" viewBox="0 0 135 156" fill="none" xmlns="http://www.w3.org/2000/svg">
<path opacity="0.2" d="M9.08212 1.24636C9.34785 0.762208 9.95575 0.585135 10.4399 0.850861C10.9241 1.11659 11.1011 1.72449 10.8354 2.20864L9.08212 1.24636ZM48.5676 83.8874L48.7873 82.9118L48.5676 83.8874ZM133.821 146.562C134.244 146.916 134.3 147.547 133.946 147.97L128.169 154.872C127.814 155.295 127.184 155.351 126.76 154.996C126.337 154.642 126.281 154.011 126.635 153.588L131.77 147.453L125.636 142.318C125.212 141.964 125.156 141.333 125.511 140.91C125.865 140.486 126.496 140.43 126.919 140.785L133.821 146.562ZM10.8354 2.20864C4.9223 12.9824 -0.220553 29.911 3.40321 45.7256C5.20969 53.6093 9.19596 61.2304 16.3802 67.7116C23.5716 74.1992 34.0132 79.5854 48.7873 82.9118L48.348 84.8629C33.3236 81.4802 22.5446 75.9663 15.0405 69.1966C7.52925 62.4204 3.34516 54.4268 1.45373 46.1723C-2.31832 29.7105 3.03283 12.2683 9.08212 1.24636L10.8354 2.20864ZM48.7873 82.9118C67.2397 87.0663 80.4261 84.7057 89.1085 79.3343C97.7855 73.9663 102.09 65.5179 102.671 57.2054C103.254 48.8706 100.094 40.7452 93.925 35.9868C87.799 31.2612 78.5085 29.7096 66.4981 34.8986L65.7049 33.0626C78.2253 27.6533 88.3206 29.1377 95.1465 34.4032C101.93 39.6358 105.288 48.4568 104.666 57.3449C104.043 66.2552 99.4213 75.3061 90.1607 81.0351C80.9057 86.7607 67.1437 89.0948 48.348 84.8629L48.7873 82.9118ZM66.4981 34.8986C54.574 40.0502 47.7138 49.9388 45.3721 61.8458C43.0249 73.7813 45.2258 87.7481 51.4953 100.891C64.0264 127.161 92.6963 149.915 133.09 146.332L133.267 148.324C91.9297 151.991 62.5302 128.67 49.6901 101.752C43.274 88.3015 40.9639 73.8969 43.4097 61.4599C45.8612 48.9943 53.0982 38.5092 65.7049 33.0626L66.4981 34.8986Z" fill="#FF553E"/>
</svg>
