<svg width="64" height="64" viewBox="0 0 64 64" fill="none" xmlns="http://www.w3.org/2000/svg">
<path d="M0.993287 29.6884C0.986298 29.6953 0.972321 29.6953 0.965332 29.6953V29.7023C0.965332 29.7093 0.972321 29.7093 0.972321 29.7093C1.20295 29.7582 1.43358 29.8072 1.6642 29.8491C1.43358 29.7932 1.21693 29.7373 0.993287 29.6884ZM0.993287 29.6884C0.986298 29.6953 0.972321 29.6953 0.965332 29.6953V29.7023C0.965332 29.7093 0.972321 29.7093 0.972321 29.7093C1.20295 29.7582 1.43358 29.8072 1.6642 29.8491C1.43358 29.7932 1.21693 29.7373 0.993287 29.6884ZM0.993287 29.6884C0.986298 29.6953 0.972321 29.6953 0.965332 29.6953V29.7023C0.965332 29.7093 0.972321 29.7093 0.972321 29.7093C1.20295 29.7582 1.43358 29.8072 1.6642 29.8491C1.43358 29.7932 1.21693 29.7373 0.993287 29.6884ZM0.993287 29.6884C0.986298 29.6953 0.972321 29.6953 0.965332 29.6953V29.7023C0.965332 29.7093 0.972321 29.7093 0.972321 29.7093C1.20295 29.7582 1.43358 29.8072 1.6642 29.8491C1.43358 29.7932 1.21693 29.7373 0.993287 29.6884ZM0.993287 29.6884C0.986298 29.6953 0.972321 29.6953 0.965332 29.6953V29.7023C0.965332 29.7093 0.972321 29.7093 0.972321 29.7093C1.20295 29.7582 1.43358 29.8072 1.6642 29.8491C1.43358 29.7932 1.21693 29.7373 0.993287 29.6884Z" fill="#FFC005"/>
<path d="M30.6496 9.97291C30.6496 13.0689 30.3211 16.0741 29.6991 18.9324C29.084 21.7838 28.1754 24.4955 27.0291 27.0254C24.5199 28.1645 21.8289 29.0661 19.0052 29.6811C16.1185 30.3101 13.0921 30.6455 9.96778 30.6455C7.11607 30.6455 4.33426 30.366 1.67127 29.8348C1.66428 29.8348 1.65729 29.8279 1.65729 29.8279C1.43363 29.7789 1.21695 29.723 0.99329 29.6741C1.21695 29.6252 1.43363 29.5763 1.65729 29.5204C1.42664 29.5623 1.19598 29.6112 0.965332 29.6601C2.59388 22.1752 6.20045 15.6477 11.0791 10.9443C15.776 6.12212 22.2623 2.55788 29.6921 0.943481V0.95047C29.6991 0.964448 29.6991 0.978425 29.6991 0.992402C30.3211 3.87175 30.6496 6.8769 30.6496 9.97291Z" fill="#FF733B"/>
<path d="M1.65468 29.8419C1.42405 29.8 1.19343 29.751 0.962799 29.7021C0.962799 29.7021 0.955811 29.7021 0.955811 29.6951V29.6881C0.962799 29.6881 0.976777 29.6881 0.983765 29.6812C1.21439 29.7371 1.43104 29.793 1.65468 29.8419Z" fill="#FFC005"/>
<path d="M29.6897 0.957454C26.81 0.335458 23.7976 0 20.6872 0C14.5085 0 8.69329 1.31388 3.62592 3.62016C1.31939 8.68698 0.00537109 14.5016 0.00537109 20.6796C0.00537109 23.7896 0.340866 26.8087 0.96293 29.6811C0.96293 29.6741 0.969919 29.6741 0.969919 29.6741C2.59847 22.1892 6.20504 15.6617 11.0837 10.9583C15.7806 6.13609 22.2669 2.57185 29.6967 0.957454H29.6897Z" fill="#7188FF"/>
<path d="M34.2865 0.98523C34.2795 0.978242 34.2795 0.964264 34.2795 0.957275H34.2725C34.2655 0.957275 34.2655 0.964264 34.2655 0.964264C34.2166 1.19489 34.1677 1.42552 34.1257 1.65615C34.1886 1.43251 34.2376 1.20887 34.2865 0.98523ZM34.2865 0.98523C34.2795 0.978242 34.2795 0.964264 34.2795 0.957275H34.2725C34.2655 0.957275 34.2655 0.964264 34.2655 0.964264C34.2166 1.19489 34.1677 1.42552 34.1257 1.65615C34.1886 1.43251 34.2376 1.20887 34.2865 0.98523ZM34.2865 0.98523C34.2795 0.978242 34.2795 0.964264 34.2795 0.957275H34.2725C34.2655 0.957275 34.2655 0.964264 34.2655 0.964264C34.2166 1.19489 34.1677 1.42552 34.1257 1.65615C34.1886 1.43251 34.2376 1.20887 34.2865 0.98523ZM34.2865 0.98523C34.2795 0.978242 34.2795 0.964264 34.2795 0.957275H34.2725C34.2655 0.957275 34.2655 0.964264 34.2655 0.964264C34.2166 1.19489 34.1677 1.42552 34.1257 1.65615C34.1886 1.43251 34.2376 1.20887 34.2865 0.98523ZM34.2865 0.98523C34.2795 0.978242 34.2795 0.964264 34.2795 0.957275H34.2725C34.2655 0.957275 34.2655 0.964264 34.2655 0.964264C34.2166 1.19489 34.1677 1.42552 34.1257 1.65615C34.1886 1.43251 34.2376 1.20887 34.2865 0.98523Z" fill="#FFC005"/>
<path d="M54.0116 30.6523C50.9153 30.6523 47.9098 30.3239 45.0441 29.7019C42.1854 29.0869 39.4735 28.1783 36.9433 27.0252C35.804 24.5162 34.9024 21.8256 34.2873 18.9952C33.6582 16.1088 33.3228 13.0757 33.3228 9.95874C33.3228 7.10036 33.6023 4.32584 34.1335 1.66314C34.1335 1.65615 34.1405 1.64916 34.1405 1.64916C34.1895 1.42552 34.2454 1.20887 34.2943 0.98523C34.3432 1.20887 34.3921 1.42552 34.4481 1.64916C34.4061 1.41853 34.3572 1.1879 34.3083 0.957275C41.801 2.58565 48.3292 6.19881 53.0331 11.07C57.8558 15.7734 61.4205 22.2519 63.035 29.6879H63.028C63.0141 29.6949 63.0001 29.6949 62.9861 29.6949C60.1204 30.3239 57.1149 30.6523 54.0116 30.6523Z" fill="#FF733B"/>
<path d="M34.1409 1.64931C34.1828 1.41868 34.2317 1.18806 34.2806 0.957428C34.2806 0.957428 34.2806 0.950439 34.2876 0.950439H34.2946C34.2946 0.957428 34.2946 0.971406 34.3016 0.978394C34.2387 1.20902 34.1898 1.43266 34.1409 1.64931Z" fill="#FFC005"/>
<path d="M63.0424 29.6951C63.6645 26.8227 64 23.8036 64 20.6936C64 14.5086 62.6859 8.69396 60.3724 3.62714C55.2981 1.31388 49.4898 0 43.3041 0C40.1938 0 37.1743 0.335458 34.2947 0.957454C34.3017 0.957454 34.3017 0.964443 34.3017 0.964443C41.7944 2.59281 48.3226 6.20598 53.0265 11.0771C57.8492 15.7805 61.4139 22.2591 63.0284 29.6951H63.0424C63.0424 29.6951 63.0354 29.6951 63.0424 29.6951Z" fill="#7188FF"/>
<path d="M62.9959 34.2904C63.0029 34.2834 63.0168 34.2834 63.0238 34.2834V34.2764C63.0238 34.2694 63.0168 34.2694 63.0168 34.2694C62.7862 34.2205 62.5556 34.1716 62.325 34.1296C62.5556 34.1925 62.7792 34.2415 62.9959 34.2904ZM62.9959 34.2904C63.0029 34.2834 63.0168 34.2834 63.0238 34.2834V34.2764C63.0238 34.2694 63.0168 34.2694 63.0168 34.2694C62.7862 34.2205 62.5556 34.1716 62.325 34.1296C62.5556 34.1925 62.7792 34.2415 62.9959 34.2904ZM62.9959 34.2904C63.0029 34.2834 63.0168 34.2834 63.0238 34.2834V34.2764C63.0238 34.2694 63.0168 34.2694 63.0168 34.2694C62.7862 34.2205 62.5556 34.1716 62.325 34.1296C62.5556 34.1925 62.7792 34.2415 62.9959 34.2904ZM62.9959 34.2904C63.0029 34.2834 63.0168 34.2834 63.0238 34.2834V34.2764C63.0238 34.2694 63.0168 34.2694 63.0168 34.2694C62.7862 34.2205 62.5556 34.1716 62.325 34.1296C62.5556 34.1925 62.7792 34.2415 62.9959 34.2904ZM62.9959 34.2904C63.0029 34.2834 63.0168 34.2834 63.0238 34.2834V34.2764C63.0238 34.2694 63.0168 34.2694 63.0168 34.2694C62.7862 34.2205 62.5556 34.1716 62.325 34.1296C62.5556 34.1925 62.7792 34.2415 62.9959 34.2904Z" fill="#FFC005"/>
<path d="M33.3403 54.0055C33.3403 50.9095 33.6688 47.9044 34.2909 45.046C34.906 42.1946 35.8146 39.483 36.9609 36.953C39.4701 35.8139 42.1611 34.9123 44.9848 34.2973C47.8715 33.6683 50.8979 33.3329 54.0222 33.3329C56.8739 33.3329 59.6557 33.6124 62.3187 34.1436C62.3257 34.1436 62.3327 34.1506 62.3327 34.1506C62.5564 34.1995 62.773 34.2554 62.9967 34.3043C62.773 34.3532 62.5564 34.4022 62.3327 34.4581C62.5633 34.4161 62.794 34.3672 63.0246 34.3183C61.3961 41.8032 57.7895 48.3307 52.9109 53.0341C48.2139 57.8563 41.7277 61.4205 34.2979 63.0349V63.0279C34.2909 63.014 34.2909 63 34.2909 62.986C33.6688 60.1136 33.3403 57.1015 33.3403 54.0055Z" fill="#FF733B"/>
<path d="M62.3345 34.1434C62.5651 34.1854 62.7957 34.2343 63.0264 34.2832C63.0264 34.2832 63.0333 34.2832 63.0333 34.2902V34.2972C63.0264 34.2972 63.0124 34.2972 63.0054 34.3042C62.7818 34.2413 62.5581 34.1924 62.3345 34.1434Z" fill="#FFC005"/>
<path d="M34.3048 63.0281C37.1775 63.6501 40.197 63.9855 43.3073 63.9855C49.486 63.9855 55.3012 62.6716 60.3686 60.3654C62.6751 55.2985 63.9892 49.4839 63.9892 43.3059C63.9892 40.1959 63.6537 37.1768 63.0316 34.3044C63.0316 34.3114 63.0246 34.3114 63.0246 34.3114C61.3961 41.7963 57.7895 48.3238 52.9108 53.0272C48.2139 57.8494 41.7277 61.4137 34.2979 63.0281H34.3048C34.3048 63.0281 34.3048 63.0211 34.3048 63.0281Z" fill="#7188FF"/>
<path d="M29.7056 62.9931C29.7126 63 29.7126 63.014 29.7126 63.021H29.7195C29.7265 63.021 29.7265 63.014 29.7265 63.014C29.7755 62.7834 29.8244 62.5528 29.8663 62.3221C29.8034 62.5528 29.7545 62.7764 29.7056 62.9931ZM29.7056 62.9931C29.7126 63 29.7126 63.014 29.7126 63.021H29.7195C29.7265 63.021 29.7265 63.014 29.7265 63.014C29.7755 62.7834 29.8244 62.5528 29.8663 62.3221C29.8034 62.5528 29.7545 62.7764 29.7056 62.9931ZM29.7056 62.9931C29.7126 63 29.7126 63.014 29.7126 63.021H29.7195C29.7265 63.021 29.7265 63.014 29.7265 63.014C29.7755 62.7834 29.8244 62.5528 29.8663 62.3221C29.8034 62.5528 29.7545 62.7764 29.7056 62.9931ZM29.7056 62.9931C29.7126 63 29.7126 63.014 29.7126 63.021H29.7195C29.7265 63.021 29.7265 63.014 29.7265 63.014C29.7755 62.7834 29.8244 62.5528 29.8663 62.3221C29.8034 62.5528 29.7545 62.7764 29.7056 62.9931ZM29.7056 62.9931C29.7126 63 29.7126 63.014 29.7126 63.021H29.7195C29.7265 63.021 29.7265 63.014 29.7265 63.014C29.7755 62.7834 29.8244 62.5528 29.8663 62.3221C29.8034 62.5528 29.7545 62.7764 29.7056 62.9931Z" fill="#FFC005"/>
<path d="M9.98118 33.3262C13.0775 33.3262 16.083 33.6546 18.9487 34.2766C21.8074 34.8916 24.5193 35.8002 27.0495 36.9533C28.1888 39.4623 29.0904 42.1529 29.7055 44.9834C30.3345 47.8697 30.67 50.9028 30.67 54.0198C30.67 56.8781 30.3905 59.6527 29.8593 62.3154C29.8593 62.3224 29.8523 62.3293 29.8523 62.3293C29.8033 62.553 29.7474 62.7696 29.6985 62.9933C29.6496 62.7696 29.6006 62.553 29.5447 62.3293C29.5867 62.56 29.6356 62.7906 29.6845 63.0212C22.1918 61.3929 15.6636 57.7797 10.9597 52.9086C6.13697 48.2051 2.57233 41.7266 0.957764 34.2906H0.964753C0.978732 34.2836 0.992711 34.2836 1.00669 34.2836C3.87238 33.6546 6.88484 33.3262 9.98118 33.3262Z" fill="#FF733B"/>
<path d="M29.8587 62.3293C29.8168 62.56 29.7679 62.7906 29.719 63.0212C29.719 63.0212 29.719 63.0282 29.712 63.0282H29.705C29.705 63.0212 29.705 63.0073 29.698 63.0003C29.7539 62.7766 29.8028 62.553 29.8587 62.3293Z" fill="#FFC005"/>
<path d="M0.957558 34.2906C0.335495 37.163 0 40.1821 0 43.2921C0 49.4771 1.31402 55.2917 3.62754 60.3586C8.69491 62.6648 14.5102 63.9857 20.6958 63.9857C23.8062 63.9857 26.8256 63.6502 29.7053 63.0283C29.6983 63.0283 29.6983 63.0213 29.6983 63.0213C22.2056 61.3929 15.6774 57.7797 10.9735 52.9086C6.15074 48.2052 2.58611 41.7266 0.971537 34.2906H0.957558Z" fill="#7188FF"/>
</svg>
