<svg width="49" height="49" viewBox="0 0 49 49" fill="none" xmlns="http://www.w3.org/2000/svg">
<path d="M19.2561 34.4347L18.7526 33.1557C18.0529 31.3687 16.6358 29.9515 14.8488 29.2519L13.5698 28.7483L13.0395 28.5433L10.0447 27.3713V27.3668L9.40303 27.1173L6.34593 25.9185L3.83251 24.9336C3.42252 24.7554 3.21753 24.4523 3.21753 24.029C3.21753 24.0156 3.21753 24.0111 3.22198 24.0022C3.21753 23.9933 3.21753 23.9844 3.21753 23.9755C3.21753 23.5477 3.42252 23.2446 3.83251 23.0708L6.34593 22.0815L9.40303 20.8827L10.0447 20.6332L8.81032 17.8034L8.7613 17.6875L5.81116 18.8462L2.31733 20.2187C1.46616 20.5574 0.864544 21.0343 0.5214 21.6448C0.1738 22.2553 0 23.0441 0 24.0022C0 24.9604 0.1738 25.7447 0.5214 26.3597C0.864544 26.9702 1.46616 27.447 2.31733 27.7813L5.81562 29.1538L8.76576 30.3125L8.88163 30.3571L11.756 31.4846L12.7453 29.2162L11.756 31.4846L12.371 31.7252C14.158 32.4293 15.5707 33.842 16.2748 35.629L16.5155 36.244L19.4611 34.9606L19.2561 34.4347Z" fill="url(#paint0_linear_0_1034)"/>
<path d="M42.0061 36.6585L40.5088 33.2137L39.2431 30.3125L39.2209 30.3215L39.2431 30.3125L39.1941 30.1967L37.9597 27.3669L36.6584 27.8793L37.9642 27.3669L37.6968 26.7608C36.9303 25.0005 36.9303 22.9996 37.6968 21.2393L37.9642 20.6332L34.9694 19.4612L34.7422 19.9781L34.194 21.2348C33.4231 22.9996 33.4231 25.005 34.194 26.7652L34.7422 28.0219L34.9694 28.5433L36.2574 31.489L37.6032 30.9587L36.2574 31.489L36.5292 32.1174L37.8483 35.1299L38.9267 37.6032C39.0872 38.0132 39.0203 38.3742 38.7173 38.6772L38.6995 38.6951C38.695 38.6995 38.6906 38.7084 38.6816 38.7129C38.3786 39.0159 38.0221 39.0828 37.6076 38.9223L35.1343 37.8394L32.1218 36.5248L31.4934 36.2485L30.366 39.1229L30.317 39.2387L33.2225 40.5044L36.6673 42.0062C37.5051 42.3716 38.2672 42.4607 38.9446 42.2691C39.6219 42.0819 40.2993 41.6497 40.9767 40.9723C41.6541 40.2949 42.0908 39.6175 42.278 38.9402C42.4607 38.2628 42.3715 37.5007 42.0061 36.6585Z" fill="url(#paint1_linear_0_1034)"/>
<path d="M29.1538 5.81562L27.7813 2.31733C27.447 1.46616 26.9702 0.864544 26.3597 0.5214C25.7447 0.1738 24.9604 0 24.0022 0C23.0441 0 22.2598 0.1738 21.6448 0.5214C21.0343 0.864544 20.5574 1.46616 20.2232 2.31733L18.8462 5.81562L17.692 8.7613L17.8078 8.81032L19.684 9.6303L17.8078 8.81032L17.692 8.7613L17.6474 8.87717L16.5199 11.7516L16.2793 12.3665C15.5752 14.1536 14.1625 15.5662 12.3755 16.2704L11.756 16.5155L13.0439 19.4611L13.5742 19.2517L14.8488 18.7526C16.6402 18.0529 18.0574 16.6358 18.757 14.8443L19.2606 13.5653L19.4656 13.0395L18.6501 12.6829L19.4656 13.0395L20.6376 10.0447L20.8917 9.40748L22.0904 6.34593L23.0753 3.83251C23.2535 3.42698 23.5521 3.22198 23.9799 3.22198H24.0334C24.4612 3.22198 24.7598 3.42698 24.9381 3.83251L25.9229 6.34593L27.1262 9.40748L27.3757 10.0447L30.2055 8.81478L30.317 8.7613L29.1538 5.81562Z" fill="url(#paint2_linear_0_1034)"/>
<path d="M42.2735 9.06428C42.0863 8.38691 41.6496 7.70953 40.9722 7.03216C40.2949 6.35033 39.6175 5.91806 38.9401 5.73089C38.2627 5.54372 37.5007 5.63285 36.6629 5.99382L33.2181 7.49563L30.3125 8.76125V8.7657L30.2011 8.81472L27.3713 10.0447L26.7608 10.3121C25.0049 11.0786 23.004 11.0786 21.2437 10.3121L20.6332 10.0447L19.4612 13.0394L19.9826 13.2667L21.2393 13.8148C22.9995 14.5858 25.0049 14.5858 26.7652 13.8148L28.0264 13.2667L28.5433 13.0394L28.3383 12.5135L28.5433 13.0394L31.489 11.7515L30.3615 8.87711L30.3348 8.81472L30.3615 8.88157L31.489 11.7515L32.1174 11.4797L35.1299 10.1606L37.6032 9.08211C38.0176 8.92168 38.3742 8.98852 38.6772 9.29156C38.6817 9.29602 38.6906 9.30047 38.695 9.30939C38.6995 9.31384 38.7084 9.3183 38.7128 9.32721C39.0159 9.63025 39.0827 9.98676 38.9223 10.4012L37.8438 12.8745L36.5247 15.887L36.2529 16.5154L39.1228 17.6429L39.2432 17.6874L40.5043 14.7863L42.0106 11.3415C42.3716 10.4992 42.4607 9.74166 42.2735 9.06428Z" fill="url(#paint3_linear_0_1034)"/>
<path d="M47.4831 21.6448C47.1399 21.0343 46.5383 20.5575 45.6871 20.2188L42.1888 18.8462L39.2431 17.6875L39.2075 17.7588L39.2387 17.6875L39.1228 17.643L36.2529 16.5155L35.6335 16.2704C33.8464 15.5663 32.4337 14.1536 31.7296 12.3666L31.489 11.7516L28.5433 13.0395L28.7483 13.5653L29.2519 14.8443C29.9515 16.6358 31.3687 18.053 33.1601 18.7526L34.4347 19.2517L34.965 19.4612L37.9597 20.6332L38.6995 18.9398L37.9642 20.6332L38.6014 20.8828L41.6585 22.0815L44.1764 23.0709C44.5819 23.2447 44.7869 23.5477 44.7869 23.9755C44.7869 23.9844 44.7869 23.9933 44.7825 24.0023C44.7869 24.0112 44.7869 24.0156 44.7869 24.029C44.7869 24.4524 44.5819 24.7554 44.1764 24.9336L41.6585 25.9185L38.6014 27.1173L37.9642 27.3668L39.1986 30.1967L39.2476 30.3125L42.1933 29.1539L45.6916 27.7813C46.5427 27.4471 47.1444 26.9702 47.4875 26.3597C47.8351 25.7447 48.0089 24.9604 48.0089 24.0023C48.0045 23.0441 47.8307 22.2553 47.4831 21.6448Z" fill="url(#paint4_linear_0_1034)"/>
<path d="M28.0219 34.7378L26.7652 34.1852C25.0005 33.4187 22.9995 33.4187 21.2393 34.1852L19.9826 34.7378L19.4612 34.9651L16.5155 36.253L15.8871 36.5293L12.8746 37.8439L10.4013 38.9223C9.98683 39.0872 9.63032 39.0204 9.32728 38.7173C9.32283 38.7129 9.31391 38.704 9.30946 38.6995C9.305 38.6951 9.29609 38.6862 9.29163 38.6817C8.98859 38.3787 8.92175 38.0177 9.08218 37.6077L10.1651 35.1344L11.4797 32.1174L11.756 31.4935L8.88164 30.3616L8.76577 30.317L7.4957 33.2181L5.99834 36.6629C5.63292 37.5052 5.54379 38.2628 5.73096 38.9446C5.92258 39.622 6.35486 40.2994 7.03223 40.9767C7.7096 41.6541 8.38698 42.0864 9.06435 42.2736C9.74173 42.4652 10.5038 42.3761 11.3416 42.0106L14.7864 40.5088L17.692 39.2432L17.8078 39.1942L20.6377 37.9598L19.9291 36.1549L20.6377 37.9598L21.2437 37.6968C23.004 36.9303 25.0005 36.9303 26.7608 37.6968L27.3713 37.9598L28.5433 34.9695L28.0219 34.7378Z" fill="url(#paint5_linear_0_1034)"/>
<path d="M14.7864 7.49563L11.3416 5.99382C10.5038 5.63285 9.74172 5.54372 9.06434 5.73089C8.38697 5.91806 7.7096 6.35033 7.03222 7.03216C6.35485 7.70953 5.92257 8.38691 5.73095 9.06428C5.54378 9.74166 5.63291 10.4992 5.99388 11.3415L7.50014 14.7863L8.76576 17.6874L8.81479 17.8033L10.0492 20.6331L11.4975 20.0672L10.0537 20.6331L10.3166 21.2437C11.0831 23.0039 11.0831 25.0004 10.3166 26.7607L10.0537 27.3668L13.0439 28.5433L13.2712 28.0219L13.8149 26.7651C14.5858 25.0049 14.5858 23.0039 13.8193 21.2392L13.2667 19.9825L13.0395 19.4611L11.7516 16.5154L11.4797 15.887L10.1651 12.8745L9.08217 10.4012C8.92174 9.98676 8.98859 9.63025 9.29162 9.32721C9.29608 9.3183 9.30499 9.31384 9.30945 9.30939C9.3139 9.30047 9.32282 9.29602 9.32727 9.29156C9.63031 8.98852 9.98682 8.92168 10.4013 9.08211L12.8746 10.1606L15.8871 11.4797L16.5155 11.7515L17.6474 8.88157L17.692 8.76125L14.7864 7.49563Z" fill="url(#paint6_linear_0_1034)"/>
<path d="M34.965 28.5433L34.4347 28.7483L33.1557 29.2519C31.3687 29.9516 29.9515 31.3687 29.2519 33.1557L28.7483 34.4347L28.5433 34.965L27.3713 37.9597L27.1217 38.597L25.9185 41.6586L24.9336 44.172C24.7554 44.5775 24.4568 44.7869 24.029 44.7869C24.0201 44.7869 24.0111 44.7869 24.0022 44.7825C23.9933 44.7869 23.9844 44.7869 23.9755 44.7869C23.5477 44.7869 23.2491 44.5775 23.0708 44.172L22.086 41.6586L20.8872 38.597L20.6376 37.9597L17.8034 39.1942L17.692 39.2432L18.8462 42.1933L20.2232 45.6871C20.5574 46.5428 21.0343 47.1399 21.6448 47.4875C22.2598 47.8351 23.0441 48.0045 24.0022 48.0045C24.9604 48.0045 25.7447 47.8351 26.3597 47.4875C26.9702 47.1399 27.447 46.5428 27.7813 45.6871L29.1538 42.1933L30.3125 39.2432L30.259 39.2164L30.3125 39.2387L30.3571 39.1229L31.4845 36.2485L29.8981 35.5577L31.4845 36.2485L31.7252 35.6335C32.4293 33.8465 33.842 32.4338 35.629 31.7297L36.2484 31.489L34.965 28.5433Z" fill="url(#paint7_linear_0_1034)"/>
<defs>
<linearGradient id="paint0_linear_0_1034" x1="15.9407" y1="34.9514" x2="2.64937" y2="19.791" gradientUnits="userSpaceOnUse">
<stop stop-color="#221ECA"/>
<stop offset="1" stop-color="#6461DA"/>
</linearGradient>
<linearGradient id="paint1_linear_0_1034" x1="36.4232" y1="39.0894" x2="33.9311" y2="24.3443" gradientUnits="userSpaceOnUse">
<stop stop-color="#93D8DE"/>
<stop offset="1" stop-color="#65C8D0"/>
</linearGradient>
<linearGradient id="paint2_linear_0_1034" x1="14.7501" y1="17.9799" x2="27.7299" y2="2.40415" gradientUnits="userSpaceOnUse">
<stop stop-color="#221ECA"/>
<stop offset="1" stop-color="#6461DA"/>
</linearGradient>
<linearGradient id="paint3_linear_0_1034" x1="40.8049" y1="8.43272" x2="25.2292" y2="16.2206" gradientUnits="userSpaceOnUse">
<stop stop-color="#93D8DE"/>
<stop offset="1" stop-color="#65C8D0"/>
</linearGradient>
<linearGradient id="paint4_linear_0_1034" x1="28.5433" y1="21.0321" x2="48.0045" y2="21.0321" gradientUnits="userSpaceOnUse">
<stop stop-color="#221ECA"/>
<stop offset="1" stop-color="#6461DA"/>
</linearGradient>
<linearGradient id="paint5_linear_0_1034" x1="11.1033" y1="36.5137" x2="23.5639" y2="32.2564" gradientUnits="userSpaceOnUse">
<stop stop-color="#93D8DE"/>
<stop offset="1" stop-color="#65C8D0"/>
</linearGradient>
<linearGradient id="paint6_linear_0_1034" x1="11.652" y1="9.41728" x2="15.3901" y2="24.6815" gradientUnits="userSpaceOnUse">
<stop stop-color="#93D8DE"/>
<stop offset="1" stop-color="#65C8D0"/>
</linearGradient>
<linearGradient id="paint7_linear_0_1034" x1="32.0178" y1="28.2542" x2="20.4918" y2="46.0106" gradientUnits="userSpaceOnUse">
<stop stop-color="#221ECA"/>
<stop offset="1" stop-color="#6461DA"/>
</linearGradient>
</defs>
</svg>
