<svg width="64" height="64" viewBox="0 0 64 64" fill="none" xmlns="http://www.w3.org/2000/svg">
<path d="M40.7254 40.7186C38.8925 44.7856 35.8284 48.1748 32.0035 50.4019C28.8564 52.2418 25.2044 53.2862 21.2965 53.2862C18.1909 53.2862 15.2375 52.6222 12.5745 51.4187C5.33276 48.1748 0.249001 41.0022 0.00691668 32.6192C0 32.4117 0 32.2111 0 32.0036C0 31.7961 0 31.5886 0.00691668 31.388C0.242084 23.005 5.33276 15.8324 12.5676 12.5815C11.371 15.2445 10.707 18.191 10.707 21.2966C10.707 25.1976 11.7584 28.8565 13.5913 32.0036C15.8185 35.8285 19.2076 38.8926 23.2746 40.7186C25.9376 41.9152 28.8841 42.5792 31.9966 42.5792C35.1091 42.5792 38.0625 41.9152 40.7254 40.7186Z" fill="url(#paint0_linear_0_112)"/>
<path d="M63.9987 32.0036C63.9987 32.2111 63.9987 32.4186 63.9918 32.6192C63.7566 41.0022 58.666 48.1748 51.438 51.4256C52.6346 48.7627 53.2986 45.8093 53.2986 42.7037C53.2986 38.8027 52.2473 35.1438 50.4143 31.9967C48.1872 28.1718 44.798 25.1008 40.731 23.2748C38.0681 22.0782 35.1216 21.4142 32.009 21.4142C28.8965 21.4142 25.95 22.0782 23.2871 23.2748C25.1131 19.2078 28.1841 15.8255 32.0021 13.5914C35.1492 11.7516 38.8012 10.7072 42.7092 10.7072C45.8217 10.7072 48.7751 11.3712 51.438 12.5747C58.666 15.8255 63.7566 22.9981 63.9918 31.3811C63.9918 31.5886 63.9987 31.7961 63.9987 32.0036Z" fill="url(#paint1_linear_0_112)"/>
<path d="M51.4325 12.5745C48.7695 11.3779 45.8161 10.707 42.7036 10.707C38.8026 10.707 35.1437 11.7584 31.9966 13.5913C28.1717 15.8184 25.1076 19.2076 23.2816 23.2746C22.085 25.9375 21.4141 28.891 21.4141 31.9966C21.4141 35.1021 22.0781 38.0556 23.2746 40.7116C19.2076 38.8856 15.8254 35.8146 13.5913 31.9966C11.7515 28.8495 10.707 25.1975 10.707 21.2895C10.707 18.184 11.371 15.2305 12.5676 12.5745C15.8185 5.33968 22.998 0.249 31.381 0.00691668C31.5885 0 31.796 0 32.0035 0C32.211 0 32.4185 0 32.6191 0.00691668C41.009 0.249 48.1816 5.33968 51.4325 12.5745Z" fill="url(#paint2_linear_0_112)"/>
<path d="M31.3817 63.9862C22.9987 63.751 15.8192 58.6604 12.5684 51.4255C15.2313 52.6221 18.1778 53.293 21.2903 53.293C25.1913 53.293 28.8502 52.2417 31.9973 50.4088C35.8222 48.1816 38.8933 44.7924 40.7193 40.7254C41.9158 38.0625 42.5798 35.116 42.5798 32.0104C42.5798 28.9048 41.9158 25.9445 40.7193 23.2885C44.7863 25.1145 48.1754 28.1855 50.4026 32.0104C52.2425 35.1575 53.2869 38.8095 53.2869 42.7174C53.2869 45.823 52.6229 48.7764 51.4263 51.4393C48.1754 58.6742 40.9959 63.7649 32.6129 64" fill="url(#paint3_linear_0_112)"/>
<defs>
<linearGradient id="paint0_linear_0_112" x1="6.69397" y1="24.4745" x2="27.9677" y2="49.1327" gradientUnits="userSpaceOnUse">
<stop stop-color="#93D8DE"/>
<stop offset="1" stop-color="#65C8D0"/>
</linearGradient>
<linearGradient id="paint1_linear_0_112" x1="57.8383" y1="37.231" x2="41.3994" y2="21.7592" gradientUnits="userSpaceOnUse">
<stop stop-color="#93D8DE"/>
<stop offset="1" stop-color="#65C8D0"/>
</linearGradient>
<linearGradient id="paint2_linear_0_112" x1="10.7085" y1="20.3594" x2="51.433" y2="20.3594" gradientUnits="userSpaceOnUse">
<stop stop-color="#221ECA"/>
<stop offset="1" stop-color="#6461DA"/>
</linearGradient>
<linearGradient id="paint3_linear_0_112" x1="47.6969" y1="25.6656" x2="26.9066" y2="59.9938" gradientUnits="userSpaceOnUse">
<stop stop-color="#221ECA"/>
<stop offset="1" stop-color="#6461DA"/>
</linearGradient>
</defs>
</svg>
