<svg width="87" height="87" viewBox="0 0 87 87" fill="none" xmlns="http://www.w3.org/2000/svg">
<path d="M34.0941 30.7767L39.8992 36.5392C41.8891 38.5206 45.1074 38.5206 47.0972 36.5392L51.8642 31.8063L52.8677 30.7421L80.76 2.84665C81.8155 1.79105 81.0714 0 79.5834 0H69.7813C66.6322 0 63.6042 1.2546 61.3808 3.47828L43.4982 21.3715L37.5893 15.4619C35.4091 13.2815 32.4503 12.0528 29.3704 12.0528H15.4416L34.1287 30.7421L34.0941 30.7767Z" fill="#FF0C5D"/>
<path d="M17.3123 87C20.4009 87 23.3597 85.7713 25.5399 83.5909L43.5003 65.6285L49.3313 71.4602C51.5634 73.6925 54.5914 74.9472 57.7492 74.9472H71.5569L52.8698 56.2579L52.9044 56.2233L47.1079 50.4608C45.1094 48.4794 41.8911 48.4794 39.9013 50.4608L35.1343 55.1937L34.1307 56.2579L6.22119 84.162C5.17437 85.2089 5.91839 87 7.39779 87" fill="#FFC005"/>
<path d="M21.3691 43.5043L15.5034 49.3707C13.2973 51.577 12.0515 54.5794 12.0515 57.7029V71.5641L30.7386 52.8749L30.7732 52.9095L36.5523 47.0864C38.5335 45.0877 38.5335 41.8604 36.535 39.8703L2.82037 6.20371C1.77355 5.16542 0 5.90087 0 7.37178V17.2269C0 20.3937 1.22851 23.3615 3.46923 25.6024L21.3691 43.5043Z" fill="#221ECA"/>
<path d="M83.5734 61.4408L65.7255 43.5044L71.6517 37.5515C73.7973 35.397 74.9998 32.4725 74.9998 29.4355V15.4272L56.3905 34.1251L56.3559 34.0905L50.6633 39.853C48.6994 41.8345 48.6908 45.0272 50.6373 47.0259L56.3646 52.9096L56.3992 52.8749L84.2395 80.8482C85.2604 81.8692 86.9993 81.1511 86.9993 79.7061V69.7299C86.9907 66.5977 85.7795 63.6559 83.5734 61.4408Z" fill="#221ECA"/>
</svg>
