<svg width="115" height="100" viewBox="0 0 115 100" fill="none" xmlns="http://www.w3.org/2000/svg">
<path d="M25.884 98.2524C20.2616 96.205 15.5554 93.1649 11.6926 89.1011C7.84017 85.0579 4.92483 79.929 2.96739 73.6627C0.999543 67.386 0 59.9615 0 51.3996C0 42.7859 0.999543 35.3097 2.95698 28.9814C4.91442 22.653 7.82976 17.4724 11.6822 13.3775C15.5554 9.26201 20.2616 6.18054 25.884 4.11244C30.9546 2.24081 36.7853 1.20676 43.3864 1.02063C42.3036 1.40323 41.2416 1.80651 40.2212 2.26149C35.3276 4.40197 31.0691 7.3697 27.5083 11.113C23.4164 15.4043 20.3449 20.7607 18.2729 27.1407C16.2009 33.5105 15.1181 40.8936 14.9931 49.2901C14.9827 49.8175 14.9827 50.3655 14.9827 50.9342C14.9827 51.4926 14.9931 52.0407 14.9931 52.5784V52.5887C15.0764 56.9421 15.5033 60.8818 16.253 64.3976C16.5341 65.7729 16.8465 67.0965 17.2213 68.3373C18.3978 72.1943 20.0637 75.4206 22.2815 77.9747C24.7283 80.7976 27.9456 82.9071 31.8396 84.2824C33.6409 84.9131 35.5983 85.3991 37.6807 85.7404C37.8369 85.7611 37.9931 85.7921 38.1388 85.8128C38.2325 85.8231 38.3262 85.8335 38.4095 85.8541C40.5856 86.1643 42.8867 86.3195 45.3543 86.3298H50.2895C50.8934 86.3298 51.4973 86.3195 52.0804 86.2988C53.8816 86.2574 55.5892 86.1023 57.2134 85.8748H57.2239C60.691 85.3888 63.7834 84.4995 66.4905 83.1759C69.208 81.8524 71.5298 80.0841 73.4144 77.9126C75.9028 75.069 77.7041 71.3981 78.891 66.9517C80.078 62.5053 80.6611 57.273 80.6611 51.2548C80.6611 45.247 80.0884 40.0147 78.9119 35.5579C77.7353 31.1115 75.9549 27.4199 73.5185 24.5349C71.6444 22.3428 69.3329 20.5642 66.605 19.2303C66.5009 19.1889 66.3967 19.1475 66.2926 19.0958H68.4895C70.9051 19.0958 73.1437 19.2613 75.2052 19.5508C75.2573 19.5612 75.3198 19.5612 75.3822 19.5715C75.5176 19.5922 75.6634 19.6232 75.7987 19.6439C76.1423 19.6956 76.4651 19.7576 76.7982 19.8197C76.9961 19.861 77.1835 19.892 77.3813 19.9334C77.4334 19.9438 77.4854 19.9644 77.5479 19.9748L77.6624 19.9955C77.7665 20.0161 77.8603 20.0368 77.9436 20.0678C78.131 20.1092 78.3184 20.1506 78.4954 20.2023C78.9847 20.3264 79.4637 20.4608 79.9322 20.6055C80.0259 20.6366 80.1092 20.6572 80.2029 20.6883C80.5153 20.7917 80.8277 20.8951 81.1296 20.9985C84.5655 22.2497 87.2726 24.0903 89.355 26.5307C91.3333 28.8573 92.9263 31.9698 94.0404 35.8578C94.2903 36.7264 94.5193 37.657 94.7171 38.6084C95.2482 41.3072 95.5917 44.3163 95.7167 47.6563C95.7271 47.9975 95.7375 48.3181 95.7479 48.618V48.6283C95.7583 48.8248 95.7583 49.0626 95.7583 49.3315C95.7583 49.6107 95.7479 49.9105 95.7479 50.4069C95.7479 50.9653 95.7583 51.7615 95.7583 52.4543V52.5887C95.7583 52.8576 95.7583 53.1058 95.7479 53.3126V53.3229C95.7375 53.6331 95.7271 53.9537 95.7167 54.3052C95.4772 62.071 94.3631 68.844 92.4161 74.614C90.4691 80.384 87.6891 85.151 84.0866 88.9873C80.7964 92.4824 76.9024 95.2226 72.3628 97.239" fill="#7188FF" fill-opacity="0.9"/>
<path d="M73.6538 99.9999C78.5474 97.8284 82.7955 94.8297 86.3668 91.0347C90.3129 86.8572 93.3115 81.6662 95.3627 75.5446C97.4346 69.4231 98.5695 62.3605 98.8298 54.3673V54.357C98.8402 54.0571 98.8507 53.7262 98.8611 53.3643C98.8611 53.3539 98.8611 53.3539 98.8611 53.3539C98.8715 53.0644 98.8715 52.8059 98.8715 52.5784V52.4129C98.8715 51.6994 98.8611 50.8929 98.8611 50.3655C98.8611 49.9002 98.8715 49.6417 98.8715 49.3108V49.2694C98.8715 49.0523 98.8715 48.7938 98.8611 48.5042V48.4939C98.8611 48.4939 98.8611 48.4939 98.8611 48.4835C98.8507 48.132 98.8402 47.8114 98.8298 47.5115V47.4909C98.632 42.3309 97.9552 37.8328 96.7891 33.9758C95.623 30.1188 93.9466 26.8926 91.7289 24.3385C89.2821 21.5155 86.0648 19.4164 82.1708 18.0308C78.2871 16.6555 73.7267 15.9937 68.4999 15.9833H63.5647C61.1595 15.9833 58.8898 16.1384 56.7761 16.4383H56.7657C53.2986 16.9243 50.2062 17.8136 47.4991 19.1372C44.792 20.4608 42.4598 22.229 40.5752 24.4005C38.0972 27.2441 36.2855 30.915 35.0985 35.3614C33.9116 39.8079 33.3285 45.0402 33.3285 51.0583C33.3285 57.0662 33.9012 62.2985 35.0777 66.7552C36.2543 71.2016 38.0347 74.8932 40.4815 77.7782C42.3556 79.9704 44.6671 81.749 47.395 83.0829C47.4991 83.1242 47.6032 83.1656 47.7074 83.2173H45.3751C40.4815 83.2173 36.3063 82.5659 32.8704 81.3147C29.4345 80.0635 26.7274 78.2228 24.645 75.7825C22.6667 73.4559 21.0633 70.3434 19.9492 66.4553C18.8351 62.5673 18.1896 57.8934 18.0855 52.4853C18.0751 51.9476 18.0751 51.4202 18.0751 50.8929C18.0751 50.3552 18.0855 49.8175 18.0855 49.2901C18.2 41.1314 19.262 34.0482 21.2195 28.0404C23.1769 22.0325 26.0298 17.1001 29.7572 13.1811C33.0474 9.72733 36.9415 7.01812 41.481 5.0224C46.0206 3.02668 51.2162 1.7548 57.0781 1.22744C59.1605 1.04131 61.3261 0.948242 63.5751 0.948242H68.5104C75.9757 0.948242 82.5144 1.98229 88.1264 4.02971C93.7488 6.07713 98.455 9.11724 102.328 13.1811C104.244 15.2078 105.941 17.4931 107.399 20.0678C108.857 22.6426 110.085 25.4863 111.064 28.6194C113.021 34.8961 114.021 42.3103 114.021 50.8825C114.021 59.4962 113.021 66.9724 111.064 73.2904C109.106 79.6188 106.191 84.7994 102.339 88.8942C98.4654 93.0098 93.7592 96.0912 88.1368 98.1593" fill="#6461DA"/>
</svg>
