<svg width="34" height="34" viewBox="0 0 34 34" fill="none" xmlns="http://www.w3.org/2000/svg">
<g clip-path="url(#clip0_0_403)">
<path d="M18.6716 26.4233H15.3286L15.1436 27.4958C14.945 28.6473 15.8317 29.6999 17.0001 29.6999C18.1685 29.6999 19.0551 28.6473 18.8565 27.4958L18.6716 26.4233Z" fill="#FFDD27"/>
<path d="M18.8828 27.7402C18.8794 27.6595 18.8708 27.5779 18.8566 27.4957L18.6716 26.4233L16.0496 25.8186L15.3286 26.4233L15.1436 27.4957C15.1294 27.5779 15.1208 27.6595 15.1174 27.7402H18.8828Z" fill="#F9C91A"/>
<path d="M25.182 21.1901C24.9672 20.8181 24.8542 20.3962 24.8542 19.9665V15.677C24.8542 12.1962 22.5898 9.24421 19.4538 8.21368C19.3585 8.18236 19.3182 8.08271 19.3605 7.99162C19.5448 7.59436 19.6317 7.14302 19.5902 6.66853C19.4995 5.62874 18.6105 4.30054 17.0034 4.30054C15.559 4.30054 14.3996 5.47284 14.3996 6.90095C14.3996 7.28332 14.4826 7.64671 14.6316 7.97405C14.6774 8.07478 14.6276 8.18665 14.5226 8.22155C11.3988 9.25904 9.1459 12.2049 9.1459 15.677L9.14596 19.9666C9.14596 20.3962 9.03289 20.8182 8.81812 21.1902L17.1744 22.8641L25.182 21.1901ZM16.0783 6.90089C16.0783 6.39176 16.491 5.97909 17.0001 5.97909C17.5092 5.97909 17.9219 6.39182 17.9219 6.90089C17.9219 7.40995 17.5091 7.82268 17.0001 7.82268C16.4909 7.82275 16.0783 7.41001 16.0783 6.90089Z" fill="#FFDD27"/>
<path d="M22.2202 14.0308V18.3203C22.2202 18.7498 22.3333 19.1719 22.5481 19.5439L23.4985 21.1901L24.7665 21.6998L25.182 21.1901C24.9672 20.8181 24.8542 20.3962 24.8542 19.9666V15.6771C24.8542 12.3104 22.7359 9.43843 19.7595 8.32129C21.2747 9.75311 22.2202 11.7816 22.2202 14.0308Z" fill="#F9C91A"/>
<path d="M33.3637 16.368C33.3637 18.9706 32.4234 21.353 30.8644 23.1946C30.5557 23.5593 29.9985 23.5769 29.6606 23.2391L29.6561 23.2346C29.3518 22.9303 29.3373 22.4457 29.6148 22.1168C30.9261 20.563 31.7174 18.5566 31.7174 16.368C31.7174 14.1799 30.9259 12.173 29.6151 10.6191C29.3376 10.2903 29.3522 9.80586 29.6563 9.5016L29.6611 9.49681C29.999 9.15873 30.5564 9.17631 30.8652 9.54123C32.424 11.3834 33.3637 13.7661 33.3637 16.368Z" fill="#FFDD27"/>
<path d="M30.0711 16.3681C30.0711 18.0411 29.5038 19.5846 28.5511 20.8157C28.2472 21.2083 27.6686 21.2473 27.3176 20.8962L27.3166 20.8952C27.0231 20.6017 26.9964 20.1371 27.2501 19.8087C27.9863 18.8563 28.4249 17.6627 28.4249 16.3682C28.4249 15.0736 27.9863 13.8801 27.2501 12.9276C26.9964 12.5992 27.0231 12.1345 27.3166 11.8411L27.3176 11.84C27.6686 11.489 28.2472 11.5279 28.5511 11.9206C29.5038 13.1515 30.0711 14.6951 30.0711 16.3681Z" fill="#FFDD27"/>
<path d="M0.636475 16.368C0.636475 18.9706 1.57674 21.353 3.13576 23.1946C3.4445 23.5593 4.00169 23.5769 4.33958 23.2391L4.34405 23.2346C4.64838 22.9303 4.66289 22.4457 4.38535 22.1168C3.07408 20.563 2.28275 18.5566 2.28275 16.368C2.28275 14.1799 3.07421 12.173 4.38509 10.6191C4.6625 10.2903 4.64793 9.80586 4.34386 9.5016L4.33907 9.49681C4.00118 9.15873 3.4438 9.17631 3.135 9.54123C1.57617 11.3834 0.636475 13.7661 0.636475 16.368H0.636475Z" fill="#FFDD27"/>
<path d="M3.9292 16.3681C3.9292 18.0411 4.49656 19.5846 5.44929 20.8157C5.75317 21.2083 6.33171 21.2473 6.68276 20.8962L6.68379 20.8952C6.97724 20.6017 7.00396 20.1371 6.7502 19.8087C6.01409 18.8563 5.57547 17.6627 5.57547 16.3682C5.57547 15.0736 6.01409 13.8801 6.7502 12.9276C7.00396 12.5992 6.97724 12.1345 6.68379 11.8411L6.68276 11.84C6.33171 11.489 5.75317 11.5279 5.44929 11.9206C4.49656 13.1515 3.9292 14.6951 3.9292 16.3681Z" fill="#FFDD27"/>
<path d="M17.0002 9.99503C16.5228 9.99503 16.0647 9.88905 15.6388 9.6801C15.3939 9.55999 15.2928 9.26404 15.4129 9.01916C15.533 8.77422 15.8289 8.67316 16.0738 8.79326C16.3633 8.93523 16.6749 9.00727 17.0002 9.00727C17.3226 9.00727 17.6318 8.93651 17.9191 8.79697C18.1644 8.67782 18.46 8.78003 18.5791 9.02542C18.6983 9.27075 18.5961 9.56625 18.3507 9.6854C17.9278 9.89091 17.4734 9.99503 17.0002 9.99503Z" fill="#F9C91A"/>
<path d="M25.1824 21.1902H8.81847L6.03908 26.0042C5.9315 26.1905 6.06599 26.4234 6.28108 26.4234H27.7198C27.9349 26.4234 28.0693 26.1905 27.9618 26.0042L25.1824 21.1902Z" fill="#F6E266"/>
<path d="M27.9616 26.004L25.1822 21.1899H23.4986L23.8824 21.8545C24.6322 23.1533 23.6949 24.7768 22.1951 24.7768H6.74733L6.03884 26.004C5.93126 26.1902 6.06575 26.4231 6.28084 26.4231H27.7196C27.9347 26.4232 28.0691 26.1904 27.9616 26.004Z" fill="#F4D820"/>
</g>
<defs>
<clipPath id="clip0_0_403">
<rect x="0.636475" y="0.636475" width="32.7273" height="32.7273" rx="15" fill="white"/>
</clipPath>
</defs>
</svg>
