<svg width="102" height="20" viewBox="0 0 102 20" fill="none" xmlns="http://www.w3.org/2000/svg">
<path d="M0.422289 11.0318C1.26932 8.83133 4.44567 7.13517 5.92797 6.56214C12.7042 3.81165 23.6097 2.43627 28.1625 3.12396C32.7152 3.81165 27.7389 5.18681 23.3979 6.56208C19.0569 7.93735 22.2333 8.62498 26.1508 7.93735C30.0683 7.24971 38.2209 6.56208 45.2089 6.21826C52.1969 5.87444 45.103 5.18681 38.2209 5.18681C31.3388 5.18681 31.4447 3.8116 33.8799 3.12396C36.3151 2.43633 41.8208 -0.314214 48.2794 0.0296036C54.738 0.373421 69.9845 1.06106 76.549 3.46778C83.1134 5.8745 96.6659 12.407 99.9481 14.4699C103.23 16.5328 102.807 22.3777 96.9835 18.9396C91.1602 15.5014 79.09 9.31268 52.6204 8.28122C26.1508 7.24977 6.03384 13.0947 3.91627 15.5014C1.79869 17.9081 0.316395 17.9081 1.16342 15.8452C2.01045 13.7823 2.22222 13.4385 1.3752 14.1261C0.528167 14.8138 -0.636497 13.7823 0.422289 11.0318Z" fill="#FF733B" fill-opacity="0.4"/>
</svg>
