<svg width="176" height="35" viewBox="0 0 176 35" fill="none" xmlns="http://www.w3.org/2000/svg">
<path d="M0.729021 19.3056C2.19056 15.4548 7.67133 12.4865 10.229 11.4837C21.9214 6.67039 40.7386 4.26347 48.5944 5.46693C56.4502 6.67039 47.8636 9.07692 40.3732 11.4836C32.8829 13.8904 38.3636 15.0937 45.1233 13.8904C51.8829 12.687 65.9502 11.4836 78.0079 10.882C90.0656 10.2803 77.8252 9.07692 65.9502 9.07692C54.0752 9.07692 54.2579 6.67029 58.4598 5.46693C62.6617 4.26357 72.1617 -0.549874 83.306 0.0518062C94.4502 0.653487 120.758 1.85685 132.085 6.06861C143.412 10.2804 166.796 21.7123 172.46 25.3224C178.123 28.9325 177.393 39.161 167.344 33.1442C157.296 27.1274 136.469 16.2972 90.7964 14.4921C45.1233 12.6871 10.4117 22.9157 6.75784 27.1274C3.104 31.3392 0.546303 31.3392 2.00784 27.7291C3.46938 24.119 3.83479 23.5174 2.37325 24.7207C0.911714 25.9241 -1.0979 24.119 0.729021 19.3056Z" fill="#FF733B"/>
</svg>
