<svg width="63" height="75" viewBox="0 0 63 75" fill="none" xmlns="http://www.w3.org/2000/svg">
<path opacity="0.3" d="M59.1342 1.04928C58.8789 0.559569 58.2749 0.369577 57.7852 0.624922C57.2955 0.880267 57.1055 1.48426 57.3608 1.97397L59.1342 1.04928ZM39.9582 38.3691L39.7594 37.389L39.9582 38.3691ZM0.378655 65.5193C-0.0523027 65.8647 -0.121673 66.4941 0.223713 66.925L5.85212 73.9479C6.1975 74.3789 6.82686 74.4483 7.25782 74.1029C7.68878 73.7575 7.75815 73.1281 7.41276 72.6972L2.40974 66.4546L8.65231 61.4516C9.08327 61.1062 9.15264 60.4768 8.80725 60.0459C8.46187 59.6149 7.83251 59.5455 7.40155 59.8909L0.378655 65.5193ZM57.3608 1.97397C59.9005 6.84458 62.0134 14.4238 60.2628 21.3791C59.3934 24.8333 57.5697 28.1476 54.3426 30.9364C51.1083 33.7314 46.4176 36.0384 39.7594 37.389L40.157 39.3491C47.0667 37.9474 52.0974 35.5201 55.6504 32.4496C59.2106 29.3728 61.2401 25.6903 62.2023 21.8673C64.115 14.2681 61.8047 6.17088 59.1342 1.04928L57.3608 1.97397ZM39.7594 37.389C31.4519 39.0742 25.6569 37.8732 21.9287 35.4554C18.2061 33.0412 16.4204 29.3378 16.2453 25.729C16.0691 22.0979 17.5216 18.6354 20.1921 16.6648C22.8193 14.7261 26.8247 14.0897 32.0789 16.4939L32.9111 14.6752C27.1516 12.0399 22.3431 12.5919 19.0046 15.0555C15.7095 17.4871 14.0446 21.6409 14.2476 25.8259C14.4518 30.0332 16.5421 34.3458 20.8405 37.1335C25.1335 39.9176 31.5047 41.1043 40.157 39.3491L39.7594 37.389ZM32.0789 16.4939C37.2477 18.859 40.1613 23.241 41.0806 28.5059C42.0049 33.7995 40.905 39.9882 37.9789 45.8001C32.1349 57.4078 19.1261 67.2911 1.1136 65.3057L0.894472 67.2936C19.8483 69.3828 33.5986 58.9481 39.7653 46.6994C42.8446 40.5831 44.063 33.959 43.0508 28.1619C42.0336 22.3362 38.756 17.3497 32.9111 14.6752L32.0789 16.4939Z" fill="#FF553E"/>
</svg>
