<svg width="106" height="21" viewBox="0 0 106 21" fill="none" xmlns="http://www.w3.org/2000/svg">
<path d="M0.438849 11.5834C1.31909 9.2729 4.62001 7.49192 6.16044 6.89024C13.2024 4.00224 24.5355 2.55808 29.2669 3.28016C33.9982 4.00224 28.8267 5.44615 24.3155 6.89018C19.8042 8.33422 23.1052 9.05623 27.1763 8.33422C31.2474 7.6122 39.7198 6.89018 46.9818 6.52917C54.2438 6.16817 46.8718 5.44615 39.7198 5.44615C32.5678 5.44615 32.6778 4.00218 35.2085 3.28016C37.7392 2.55814 43.4608 -0.329925 50.1727 0.0310837C56.8846 0.392092 72.729 1.11411 79.5509 3.64117C86.3728 6.16823 100.457 13.0274 103.868 15.1934C107.279 17.3595 106.838 23.4966 100.787 19.8865C94.7351 16.2765 82.1916 9.77831 54.684 8.69528C27.1763 7.61226 6.27046 13.7494 4.06985 16.2765C1.86923 18.8035 0.328803 18.8035 1.20905 16.6375C2.08929 14.4714 2.30937 14.1104 1.42913 14.8324C0.54888 15.5544 -0.661457 14.4714 0.438849 11.5834Z" fill="#FF733B"/>
</svg>
